<svg width="48" height="48" viewBox="0 0 48 48" fill="none" xmlns="http://www.w3.org/2000/svg">
<g clip-path="url(#clip0_97_213)">
<path d="M45.7402 0V3.87109H43.2568V7.74121H41.6543V15.4824H43.2568V11.6123H46.8701V7.74121H48V48H3.87109V44.543H6.59766V42.335H7.82227V36.9082H6.59766V39.1172H2.72656V41.0859H0V0H45.7402Z" fill="#101F23"/>
<path d="M22.2441 40.2593H21.2695V30.9683H23.4131V26.3228H13.2812V24.0005H15.4248V19.355H17.373V12.3862H19.5156V7.7417H28.4785V10.064H26.5303V14.7095H24.3867V19.355H34.7129V21.6772H32.5703V24.0005H30.4268V28.645H28.4785V30.9683H26.335V33.2905H24.582V35.6138H23.2178V37.936H22.2441V40.2593Z" fill="#FFF203"/>
</g>
<defs>
<clipPath id="clip0_97_213">
<rect width="48" height="48" rx="1" fill="white"/>
</clipPath>
</defs>
</svg>
