<svg width="44" height="40" viewBox="0 0 44 40" fill="none" xmlns="http://www.w3.org/2000/svg">
<path d="M33 0V34L32 34V32H30V30H26V28H24V26H18V32H20V34H14V6H26V4H28V2H32V0.902832V0H33Z" fill="#DFDEE3"/>
<path d="M32 0.902832H38V2H33.9993V4L33.9997 20L34 12V10H38V2H40V10H42V12H44V20H42V22H40V32H38V22H33.9997L34 32H38V34H34H32V32H30V30H32V22V20V4H30V6H28V8H16V24H24V26H18V32H20V34V38H18V40H12V38H10V32H8V26H4V24H2V22H0V12H2V10H4V8H6V6H14H26V4H28V2H32V0.902832ZM26 28H24V26H26V28ZM26 28V30H30V28H26Z" fill="#F1791F"/>
<path d="M32 0H33H38V0.902832V2H33.9993H32V0.902832V0Z" fill="#101F23"/>
<path d="M32 20H42V22H40H32V20Z" fill="#101F23"/>
<path d="M28 2H32H33.9993V4H32H30H28V2Z" fill="#101F23"/>
<path d="M26 4H28H30V6H28H26V4Z" fill="#101F23"/>
<path d="M34 10H38H40H42V12H34V10Z" fill="#101F23"/>
<path d="M32 4H33.9993L34 10V12L33.9997 20L33.9997 22L34 32L34 34H32V32V4Z" fill="#101F23"/>
<path d="M34 12H36V20H33.9997L34 12Z" fill="#CF5415"/>
<path d="M38 2H40V10V12H38V2Z" fill="#101F23"/>
<path d="M38 22H40V32H38V22Z" fill="#101F23"/>
<path d="M32 32H38V34H34H32V32Z" fill="#101F23"/>
<path d="M42 12H44V20H42V12Z" fill="#101F23"/>
<path d="M6 6H26H28V8H16H6V6Z" fill="#101F23"/>
<path d="M4 8H6H8V10H4V8Z" fill="#101F23"/>
<path d="M2 10H4H6V12H2V10Z" fill="#101F23"/>
<path d="M2 22H6V24H4H2V22Z" fill="#101F23"/>
<path d="M2 12H4V14H2V12Z" fill="#101F23"/>
<path d="M2 20H4V22H2V20Z" fill="#101F23"/>
<path d="M8 26H10V32H8V26Z" fill="#101F23"/>
<path d="M10 32H12V38H10V32Z" fill="#101F23"/>
<path d="M12 38H18V40H12V38Z" fill="#101F23"/>
<path d="M16 26H18V32H16V26Z" fill="#101F23"/>
<path d="M18 32H20V34V38H18V32Z" fill="#101F23"/>
<path d="M30 30H32V32H30V30Z" fill="#101F23"/>
<path d="M26 28H30V30H26V28Z" fill="#101F23"/>
<path d="M24 26H26V28H24V26Z" fill="#101F23"/>
<path d="M4 24H16H24V26H18H8H4V24Z" fill="#101F23"/>
<path d="M0 12H2V22H0V12Z" fill="#101F23"/>
<path d="M14 8H16V24H14V8Z" fill="#101F23"/>
<path d="M6 22H14V24H6V22Z" fill="#CF5415"/>
<path d="M16 22H24V24H16V22Z" fill="#ACB6B7"/>
<path d="M16 20H22V22H16V20Z" fill="#ACB6B7"/>
<path d="M24 24H26V26H24V24Z" fill="#ACB6B7"/>
<path d="M26 26H30V28H26V26Z" fill="#ACB6B7"/>
<path d="M30 28H32V30H30V28Z" fill="#ACB6B7"/>
<path d="M4 20H12V22H4V20Z" fill="#CF5415"/>
<path d="M2 18H10V20H2V18Z" fill="#CF5415"/>
<path d="M10 26H12V28H10V26Z" fill="#CF5415"/>
<path d="M10 28H12V30H10V28Z" fill="#CF5415"/>
<path d="M10 30H12V32H10V30Z" fill="#CF5415"/>
<path d="M12 26H14V28H12V26Z" fill="#CF5415"/>
<path d="M14 26H16V28H14V26Z" fill="#CF5415"/>
</svg>
