<svg width="54" height="34" viewBox="0 0 54 34" fill="none" xmlns="http://www.w3.org/2000/svg">
<path d="M26 24V10H24V8H22V6H10V8H8V10H6V12H2H0V26H2H8V28H22V26H24V24H26Z" fill="#FADEB2"/>
<path d="M28.0069 24V10H30.0069V8H32.0069V6H44.0069V8H46.0069V10H48.0069V12H52.0069H54.0069V26H52.0069H46.0069V28H32.0069V26H30.0069V24H28.0069Z" fill="#FADEB2"/>
<path d="M0 12H2V26H0V12Z" fill="#101F23"/>
<path d="M54.0069 12H52.0069V26H54.0069V12Z" fill="#101F23"/>
<path d="M2 12H8V14H2V12Z" fill="#101F23"/>
<path d="M52.0069 12H46.0069V14H52.0069V12Z" fill="#101F23"/>
<path d="M2 24H8V26H2V24Z" fill="#101F23"/>
<path d="M52.0069 24H46.0069V26H52.0069V24Z" fill="#101F23"/>
<path d="M8 26H22V28H8V26Z" fill="#101F23"/>
<path d="M46.0069 26H32.0069V28H46.0069V26Z" fill="#101F23"/>
<path d="M6 10H8V12H6V10Z" fill="#101F23"/>
<path d="M48.0069 10H46.0069V12H48.0069V10Z" fill="#101F23"/>
<path d="M14 12H16V26H14V12Z" fill="#101F23"/>
<path d="M40.0069 12H38.0069V26H40.0069V12Z" fill="#101F23"/>
<path d="M12 14H14V18H12V14Z" fill="#101F23"/>
<path d="M42.0069 14H40.0069V18H42.0069V14Z" fill="#101F23"/>
<path d="M22 24H24V26H22V24Z" fill="#101F23"/>
<path d="M32.0069 24H30.0069V26H32.0069V24Z" fill="#101F23"/>
<path d="M14 22H24V24H14V22Z" fill="#101F23"/>
<path d="M40.0069 22H30.0069V24H40.0069V22Z" fill="#101F23"/>
<path d="M14 18H24V20H14V18Z" fill="#101F23"/>
<path d="M40.0069 18H30.0069V20H40.0069V18Z" fill="#101F23"/>
<path d="M14 14H24V16H14V14Z" fill="#101F23"/>
<path d="M40.0069 14H30.0069V16H40.0069V14Z" fill="#101F23"/>
<path d="M8 8H10V10H8V8Z" fill="#101F23"/>
<path d="M46.0069 8H44.0069V10H46.0069V8Z" fill="#101F23"/>
<path d="M16 12H18V14H16V12Z" fill="#101F23"/>
<path d="M38.0069 12H36.0069V14H38.0069V12Z" fill="#101F23"/>
<path d="M26.0125 0H28.0125V4H26.0125V0Z" fill="#101F23"/>
<path d="M26.0125 34H28.0125V30H26.0125V34Z" fill="#101F23"/>
<path d="M22.0125 2H24.0125V4H22.0125V2Z" fill="#101F23"/>
<path d="M22 32H24V30H22V32Z" fill="#101F23"/>
<path d="M32.0125 2H30.0125V4H32.0125V2Z" fill="#101F23"/>
<path d="M32.0125 32H30.0125V30H32.0125V32Z" fill="#101F23"/>
<path d="M20.0125 0H22.0125V2H20.0125V0Z" fill="#101F23"/>
<path d="M20 34H22V32H20V34Z" fill="#101F23"/>
<path d="M34.0125 0H32.0125V2H34.0125V0Z" fill="#101F23"/>
<path d="M34.0125 34H32.0125V32H34.0125V34Z" fill="#101F23"/>
<path d="M20 10H22V14H20V10Z" fill="#101F23"/>
<path d="M34.0069 10H32.0069V14H34.0069V10Z" fill="#101F23"/>
<path d="M10 6H22V8H10V6Z" fill="#101F23"/>
<path d="M44.0069 6H32.0069V8H44.0069V6Z" fill="#101F23"/>
<path d="M20 8H22H24V10H20V8Z" fill="#101F23"/>
<path d="M34.0069 8H32.0069H30.0069V10H34.0069V8Z" fill="#101F23"/>
<path d="M24 10H26V24H24V10Z" fill="#101F23"/>
<path d="M30.0069 10H28.0069V24H30.0069V10Z" fill="#101F23"/>
<path d="M12 18H14V20H12V18Z" fill="#D0AC7E"/>
<path d="M42.0069 18H40.0069V20H42.0069V18Z" fill="#D0AC7E"/>
<path d="M12 20H14V22H12V20Z" fill="#D0AC7E"/>
<path d="M42.0069 20H40.0069V22H42.0069V20Z" fill="#D0AC7E"/>
<path d="M10 18H12V20H10V18Z" fill="#D0AC7E"/>
<path d="M44.0069 18H42.0069V20H44.0069V18Z" fill="#D0AC7E"/>
<path d="M2 22H6V24H2V22Z" fill="#D0AC7E"/>
<path d="M52.0069 22H48.0069V24H52.0069V22Z" fill="#D0AC7E"/>
</svg>
