<svg width="36" height="36" viewBox="0 0 36 36" fill="none" xmlns="http://www.w3.org/2000/svg">
<path d="M36 14V8H24V6H22V2H20V0H16V2H14V6H12V8H0V10V14H2H4V16H6V18H8V22H6V26H4V30H2V36H4H8V34H12V32H16V30H20V32H24V34H28V36H32H34V30H32V26H30V22H28V18H30V16H32V14H34H36Z" fill="#F0D333"/>
<path d="M34 10H36V14H34V10Z" fill="#101F23"/>
<path d="M16 0H20V2H16V0Z" fill="#101F23"/>
<path d="M20 2H22V6H20V2Z" fill="#101F23"/>
<path d="M22 6H24V8V10H22V6Z" fill="#101F23"/>
<path d="M14 2H16V6H14V2Z" fill="#101F23"/>
<path d="M14 14H16V20H14V14Z" fill="#101F23"/>
<path d="M20 14H22V20H20V14Z" fill="#101F23"/>
<path d="M12 6H14V10H12V8V6Z" fill="#101F23"/>
<path d="M0 10H2V14H0V10Z" fill="#101F23"/>
<path d="M0 8H12V10H0V8Z" fill="#101F23"/>
<path d="M24 8H36V10H24V8Z" fill="#101F23"/>
<path d="M2 12H4V14H2V12Z" fill="#101F23"/>
<path d="M34 12H32V14H34V12Z" fill="#101F23"/>
<path d="M4 14H6V16H4V14Z" fill="#101F23"/>
<path d="M32 14H30V16H32V14Z" fill="#101F23"/>
<path d="M6 16H8V18H6V16Z" fill="#101F23"/>
<path d="M30 16H28V18H30V16Z" fill="#101F23"/>
<path d="M8 18H10V22H8V18Z" fill="#101F23"/>
<path d="M28 18H26V22H28V18Z" fill="#101F23"/>
<path d="M6 22H8V26H6V22Z" fill="#101F23"/>
<path d="M30 22H28V26H30V22Z" fill="#101F23"/>
<path d="M4 26H6V30H4V26Z" fill="#101F23"/>
<path d="M32 26H30V30H32V26Z" fill="#101F23"/>
<path d="M2 30H4V36H2V30Z" fill="#101F23"/>
<path d="M32 30H34V36H32V30Z" fill="#101F23"/>
<path d="M4 34H8V36H4V34Z" fill="#101F23"/>
<path d="M32 34H28V36H32V34Z" fill="#101F23"/>
<path d="M8 32H12V34H8V32Z" fill="#101F23"/>
<path d="M8 30H12V32H8V30Z" fill="#E69603"/>
<path d="M28 32H24V34H28V32Z" fill="#101F23"/>
<path d="M28 30H24V32H28V30Z" fill="#E69603"/>
<path d="M12 30H16V32H12V30Z" fill="#101F23"/>
<path d="M12 28H16V30H12V28Z" fill="#E69603"/>
<path d="M24 30H20V32H24V30Z" fill="#101F23"/>
<path d="M24 28H20V30H24V28Z" fill="#E69603"/>
<path d="M16 28H20V30H16V28Z" fill="#101F23"/>
<path d="M16 26H20V28H16V26Z" fill="#E69603"/>
<path d="M4 30H8V34H4V30Z" fill="#E69603"/>
<path d="M32 30H28V34H32V30Z" fill="#E69603"/>
<path d="M6 26H8V30H6V26Z" fill="#E69603"/>
<path d="M30 26H28V30H30V26Z" fill="#E69603"/>
<path d="M8 22H10V26H8V22Z" fill="#E69603"/>
<path d="M28 22H26V26H28V22Z" fill="#E69603"/>
<path d="M10 18H12V22H10V18Z" fill="#E69603"/>
<path d="M26 18H24V22H26V18Z" fill="#E69603"/>
<path d="M8 16H10V18H8V16Z" fill="#E69603"/>
<path d="M28 16H26V18H28V16Z" fill="#E69603"/>
<path d="M6 14H8V16H6V14Z" fill="#E69603"/>
<path d="M30 14H28V16H30V14Z" fill="#E69603"/>
<path d="M4 12H6V14H4V12Z" fill="#E69603"/>
<path d="M32 12H30V14H32V12Z" fill="#E69603"/>
<path d="M2 10H4V12H2V10Z" fill="#E69603"/>
<path d="M34 10H32V12H34V10Z" fill="#E69603"/>
</svg>
