<svg width="48" height="37" viewBox="0 0 48 37" fill="none" xmlns="http://www.w3.org/2000/svg">
<path d="M16 0.571289H32V2.57129H34V4.57129H36V6.57129H38V8.57129H40V12.5713H42V22.5713H44V26.5713H48V32.5713H46V34.5713H44V36.5713H4V34.5713H2V32.5713H0V26.5713H4V22.5713H6V12.5713H8V8.57129H10V6.57129H12V4.57129H14V2.57129H16V0.571289Z" fill="#FBC829"/>
<path d="M16 0.571289H24V2.57129H16V0.571289Z" fill="#101F23"/>
<path d="M32 0.571289H24V2.57129H32V0.571289Z" fill="#101F23"/>
<path d="M14 2.57129H16H18V4.57129H14V2.57129Z" fill="#101F23"/>
<path d="M34 2.57129H32H30V4.57129H34V2.57129Z" fill="#101F23"/>
<path d="M12 4.57129H14V6.57129H12V4.57129Z" fill="#101F23"/>
<path d="M36 4.57129H34V6.57129H36V4.57129Z" fill="#101F23"/>
<path d="M16 2.57129H18V16.5713H16V2.57129Z" fill="#101F23"/>
<path d="M18 2.57129H20V16.5713H18V2.57129Z" fill="#D58A11"/>
<path d="M14 4.57129H16V16.5713H14V4.57129Z" fill="#D58A11"/>
<path d="M16 16.5713H18V18.5713H16V16.5713Z" fill="#D58A11"/>
<path d="M10 8.57129H12V12.5713H10V8.57129Z" fill="#D58A11"/>
<path d="M12 6.57129H14V8.57129H12V6.57129Z" fill="#D58A11"/>
<path d="M40 24.5713H42V26.5713H40V24.5713Z" fill="#D58A11"/>
<path d="M6 24.5713H8V26.5713H6V24.5713Z" fill="#D58A11"/>
<path d="M10 22.5713H12V24.5713H10V22.5713Z" fill="#D58A11"/>
<path d="M10 20.5713H12V22.5713H10V20.5713Z" fill="#D58A11"/>
<path d="M12 22.5713H14V24.5713H12V22.5713Z" fill="#D58A11"/>
<path d="M8 12.5713H10V28.5713H8V12.5713Z" fill="#D58A11"/>
<path d="M6 30.5713H8V34.5713H6V30.5713Z" fill="#D58A11"/>
<path d="M4 28.5713H6V32.5713H4V28.5713Z" fill="#D58A11"/>
<path d="M2 28.5713H4V30.5713H2V28.5713Z" fill="#D58A11"/>
<path d="M8 30.5713H10V34.5713H8V30.5713Z" fill="#D58A11"/>
<path d="M10 30.5713H12V34.5713H10V30.5713Z" fill="#D58A11"/>
<path d="M12 32.5713H18V34.5713H12V32.5713Z" fill="#D58A11"/>
<path d="M10 26.5713H16V28.5713H10V26.5713Z" fill="#D58A11"/>
<path d="M10 28.5713H38V30.5713H10V28.5713Z" fill="#D58A11"/>
<path d="M28 2.57129H30V16.5713H28V2.57129Z" fill="#D58A11"/>
<path d="M32 2.57129H30V16.5713H32V2.57129Z" fill="#101F23"/>
<path d="M10 6.57129H12V8.57129H10V6.57129Z" fill="#101F23"/>
<path d="M38 6.57129H36V8.57129H38V6.57129Z" fill="#101F23"/>
<path d="M8 8.57129H10V12.5713H8V8.57129Z" fill="#101F23"/>
<path d="M40 8.57129H38V12.5713H40V8.57129Z" fill="#101F23"/>
<path d="M6 12.5713H8V24.5713H6V22.5713V12.5713Z" fill="#101F23"/>
<path d="M42 12.5713H40V24.5713H42V22.5713V12.5713Z" fill="#101F23"/>
<path d="M4 22.5713H6V26.5713H4V22.5713Z" fill="#101F23"/>
<path d="M44 22.5713H42V26.5713H44V22.5713Z" fill="#101F23"/>
<path d="M0 28.5713H2V32.5713H0V28.5713Z" fill="#101F23"/>
<path d="M48 28.5713H46V32.5713H48V28.5713Z" fill="#101F23"/>
<path d="M0 26.5713H4H8V28.5713H0V26.5713Z" fill="#101F23"/>
<path d="M48 26.5713H44H40V28.5713H48V26.5713Z" fill="#101F23"/>
<path d="M2 30.5713H4V32.5713H2V30.5713Z" fill="#101F23"/>
<path d="M46 30.5713H44V32.5713H46V30.5713Z" fill="#101F23"/>
<path d="M6 28.5713H10V30.5713H6V28.5713Z" fill="#101F23"/>
<path d="M42 28.5713H38V30.5713H42V28.5713Z" fill="#101F23"/>
<path d="M14 22.5713H24V24.5713H14V22.5713Z" fill="#101F23"/>
<path d="M34 22.5713H24V24.5713H34V22.5713Z" fill="#101F23"/>
<path d="M2 32.5713H6V34.5713H4H2V32.5713Z" fill="#101F23"/>
<path d="M46 32.5713H42V34.5713H44H46V32.5713Z" fill="#101F23"/>
<path d="M4 34.5713H24V36.5713H4V34.5713Z" fill="#101F23"/>
<path d="M44 34.5713H24V36.5713H44V34.5713Z" fill="#101F23"/>
</svg>
